<?xml version="1.0" encoding="UTF-8" standalone="no"?>
<svg
   xmlns:dc="http://purl.org/dc/elements/1.1/"
   xmlns:cc="http://creativecommons.org/ns#"
   xmlns:rdf="http://www.w3.org/1999/02/22-rdf-syntax-ns#"
   xmlns:svg="http://www.w3.org/2000/svg"
   xmlns="http://www.w3.org/2000/svg"
   height="19.857555"
   width="26.992548"
   version="1.1"
   viewBox="0 0 26.992548 19.857556"
   id="Calque_1">
  <metadata
     id="metadata72">
    <rdf:RDF>
      <cc:Work
         rdf:about="">
        <dc:format>image/svg+xml</dc:format>
        <dc:type
           rdf:resource="http://purl.org/dc/dcmitype/StillImage" />
        <dc:title></dc:title>
      </cc:Work>
    </rdf:RDF>
  </metadata>
  <defs
     id="defs19">
    <style
       id="style2">.cls-1{fill:#30a1db;}.cls-2{fill:#9d9d9c;}.cls-3{fill:#29235c;}.cls-4{fill:url(#Dégradé_sans_nom_13);}.cls-5{fill:#1d71b8;}</style>
    <linearGradient
       gradientUnits="userSpaceOnUse"
       y2="52.299999"
       x2="87.82"
       y1="52.299999"
       x1="0"
       id="Dégradé_sans_nom_13">
      <stop
         id="stop4"
         stop-color="#30a1db"
         offset="0" />
      <stop
         id="stop6"
         stop-color="#2f9dd7"
         offset=".19" />
      <stop
         id="stop8"
         stop-color="#2f91cb"
         offset=".36" />
      <stop
         id="stop10"
         stop-color="#2e7eb8"
         offset=".54" />
      <stop
         id="stop12"
         stop-color="#2c649d"
         offset=".71" />
      <stop
         id="stop14"
         stop-color="#2a427b"
         offset=".87" />
      <stop
         id="stop16"
         stop-color="#29235c"
         offset="1" />
    </linearGradient>
  </defs>
  <path
     style="fill:#1d71b8"
     id="path43"
     d="m 25.392547,0.046875 c -0.61,-0.05 -1.22,-0.06 -1.85,-0.03 -3.8,0.18 -7.77,1.81 -12,5.65 0.04,0.25 0.08,0.51 0.16,0.77 0.16,0.66 0.42,1.3 0.77,1.92 0.6,1.05 1.43,1.91 2.38,2.55 2.41,-0.73 4.51,-1.69 6.27,-2.91 1.77,-1.22 3.19,-2.67 4.28,-4.38 0.36,-0.55 0.67,-1.13 0.95,-1.73 0.18,-0.4 0.35,-0.81 0.5,-1.24 0.06,-0.13 0.09,-0.25 0.14,-0.38 -0.54,-0.1 -1.07,-0.17 -1.61,-0.2 z"
     class="cls-5" />
  <path
     style="fill:#29235c"
     id="path45"
     d="m 13.232547,11.336875 c -0.17,0.04 -0.34,0.09 -0.5,0.12 -0.46,0.12 -0.94,0.2 -1.41,0.31 -0.839998,-1.06 -1.5899979,-2.12 -1.9499979,-3.09 0.38,-0.43 0.7799999,-0.84 1.1699999,-1.23 0.07,0.25 0.16,0.49 0.27,0.73 0.11,0.3 0.25,0.59 0.42,0.88 0.529998,0.92 1.209998,1.68 1.999998,2.28 z"
     class="cls-3" />
  <path
     style="fill:#1d71b8"
     id="path47"
     d="m 10.532549,7.446875 c -0.39,0.39 -0.7799999,0.8 -1.1699999,1.23 -0.09,-0.21 -0.16,-0.44 -0.2,-0.64 0.4,-0.44 0.79,-0.86 1.1999999,-1.24 0.05,0.22 0.1,0.44 0.17,0.66 z"
     class="cls-5" />
  <path
     style="fill:#1d71b8"
     id="path49"
     d="m 15.532547,1.006875 c -0.21,0.12 -0.41,0.24 -0.62,0.36 -1.41,0.85 -2.62,1.76 -3.58,2.76 -0.869998,-0.76 -1.8999979,-1.18 -3.1199979,-1.26 -0.23,-0.03 -0.46,-0.03 -0.71,-0.03 2.6699999,-2.43 5.3399979,-2.77 8.0299979,-1.84 z"
     class="cls-5" />
  <path
     style="fill:#1d71b8"
     id="path51"
     d="m 20.652547,9.936875 -0.02,0.13 c -0.06,0.25 -0.11,0.5 -0.19,0.73 -1.56,0.88 -3.07,1.56 -4.51,1.95 0,-0.19 -0.02,-0.37 -0.06,-0.55 0,-0.07 -0.01,-0.14 -0.02,-0.21 1.54,-0.37 3.14,-1.08 4.81,-2.05 z"
     class="cls-5" />
  <path
     style="fill:#29235c"
     id="path53"
     d="m 20.442547,10.796875 c -0.68,2.31 -2.26,4.09 -5.21,5.07 -0.07,0.03 -0.13,0.05 -0.21,0.07 0.17,-0.28 0.32,-0.54 0.43,-0.81 v 0 c 0.36,-0.79 0.51,-1.58 0.48,-2.37 1.44,-0.4 2.94,-1.07 4.51,-1.95 z"
     class="cls-3" />
  <path
     style="fill:#29235c"
     id="path55"
     d="m 26.862547,0.626875 c -0.15,0.43 -0.32,0.84 -0.5,1.24 -0.28,0.6 -0.59,1.18 -0.95,1.73 -1.09,1.71 -2.51,3.16 -4.28,4.38 -1.76,1.22 -3.86,2.18 -6.27,2.91 -0.95,-0.64 -1.77,-1.5 -2.38,-2.55 -0.35,-0.62 -0.62,-1.26 -0.77,-1.92 4.51,-3.99 8.74,-5.69 12.78,-5.87 0.69,-0.04 1.36,-0.03 2.03,0.03 0.11,0 0.22,0.01 0.34,0.04 z"
     class="cls-3" />
  <path
     style="fill:#29235c"
     id="path57"
     d="m 14.912547,1.366875 c -1.41,0.85 -2.62,1.76 -3.58,2.76 -0.869998,-0.76 -1.8999979,-1.18 -3.1199979,-1.26 2.2199999,-1.66 4.4599979,-2.02 6.6999979,-1.5 z"
     class="cls-3" />
  <path
     style="fill:#1d71b8"
     id="path59"
     d="m 18.452547,3.316875 c 0.81,-0.46 1.83,-0.18 2.3,0.62 0.03,0.04 0.06,0.08 0.06,0.13 v 0 c 0.37,0.79 0.08,1.73 -0.68,2.16 -0.81,0.46 -1.83,0.18 -2.3,-0.62 -0.07,-0.11 -0.12,-0.24 -0.15,-0.36 -0.23,-0.73 0.08,-1.54 0.76,-1.94 z"
     class="cls-5" />
  <path
     style="fill:#30a1db"
     id="path61"
     d="m 20.132547,6.236875 c -0.81,0.46 -1.83,0.18 -2.3,-0.62 -0.07,-0.11 -0.12,-0.24 -0.15,-0.36 0.04,-0.59 0.36,-1.15 0.91,-1.47 0.73,-0.41 1.63,-0.28 2.21,0.28 v 0 c 0.37,0.79 0.08,1.73 -0.68,2.16 z"
     class="cls-1" />
  <path
     style="fill:#9d9d9c"
     id="path63"
     d="m 3.3825491,12.746875 c 0.32,-0.28 1.31,-1.01 2.37,-1.4 1.06,-0.39 2.02,-0.82 2.14,-0.62 0.12,0.2 -1.32,1.16 -1.22,1.29 0.1,0.13 1.29,-0.6 1.33,-0.49 0.04,0.11 -0.18,0.2 -0.15,0.26 0.03,0.06 0.59,-0.1 0.65,0.05 0.06,0.15 -1.54,0.94 -1.53,1.01 0.01,0.07 0.37,-0.08 0.4,0 0.03,0.08 -0.95,0.61 -0.91,0.66 0.04,0.05 0.34,-0.03 0.35,0.05 0.01,0.08 -2.12,1.01 -2.44,1.22 -0.32,0.21 -1.59,1.19 -1.64,1.12 -0.05,-0.07 0.12,-0.31 0.07,-0.35 -0.05,-0.04 -2.56999997,1.47 -2.76999997,1.07 -0.2,-0.4 0.77,-0.73 0.77,-0.89 0,-0.16 -0.72,0.02 -0.8,-0.21 -0.08,-0.23 1.74999997,-1.31 1.68999997,-1.46 -0.06,-0.15 -0.61,0.18 -0.69999997,0.04 -0.09,-0.14 2.38999997,-1.34 2.38999997,-1.34 z"
     class="cls-2" />
  <path
     style="fill:#9d9d9c"
     id="path65"
     d="m 4.8725491,11.266875 c 0,0 -1.64,-3.47 -2.04,-3.77 -0.18,-0.34 -0.49,-0.65 -0.62,-0.71 -0.2,-0.4 -0.62,-1.3 -0.82,-1.32 -0.2,-0.02 0.13,0.72 0.08,0.75 -0.05,0.03 -0.33,-0.5 -0.41,-0.37 -0.05,0.07 0.04,2.5 1.13,5.18 1.09,2.68 3.07,5.94 3.17,5.9 0.1,-0.04 -0.22,-0.55 -0.15,-0.59 0.07,-0.04 2.47,3.32 2.86,3.19 0.35,0.27 0.52,0.54 0.39,0.09 -0.13,-0.45 -1.63,-4.78 -1.92,-5.12 0.16,0.86 1.32,3.77 1.12,3.88 -0.2,0.11 -2.8,-3.4 -4.03,-5.67 -1.23,-2.27 -2.01,-5.32 -1.66,-5.44 0.35,-0.12 2.89,3.99 2.89,3.99 z"
     class="cls-2" />
  <path
     id="path67"
     d="m -86.417451,37.756875 c -4.37,7.97 -2.53,13.05 5.73,13.85 14.66,1.42 69.02,-24.32 79.80000013,-35.42 -19.59000013,4.63 -70.38000013,40.05 -83.77000013,33.08 -5.99,-3.12 -2.15,-9.04 -2.15,-9.04 l 0.4,-2.47 z"
     class="cls-4" />
</svg>
