<?xml version="1.0" encoding="UTF-8" standalone="no"?>
<!-- Created with Inkscape (http://www.inkscape.org/) -->

<svg
   xmlns:dc="http://purl.org/dc/elements/1.1/"
   xmlns:cc="http://creativecommons.org/ns#"
   xmlns:rdf="http://www.w3.org/1999/02/22-rdf-syntax-ns#"
   xmlns:svg="http://www.w3.org/2000/svg"
   xmlns="http://www.w3.org/2000/svg"
   xmlns:sodipodi="http://sodipodi.sourceforge.net/DTD/sodipodi-0.dtd"
   xmlns:inkscape="http://www.inkscape.org/namespaces/inkscape"
   id="svg8"
   version="1.1"
   viewBox="0 0 117.39712 108.16624"
   height="108.16624mm"
   width="117.39712mm"
   inkscape:version="0.92.4 (5da689c313, 2019-01-14)"
   sodipodi:docname="galaxy.svg">
  <defs
     id="defs2" />
  <sodipodi:namedview
     id="base"
     pagecolor="#ffffff"
     bordercolor="#666666"
     borderopacity="1.0"
     inkscape:pageopacity="0.0"
     inkscape:pageshadow="2"
     inkscape:zoom="0.98994949"
     inkscape:cx="41.946384"
     inkscape:cy="158.22221"
     inkscape:document-units="mm"
     inkscape:current-layer="layer1"
     showgrid="false"
     inkscape:window-width="1920"
     inkscape:window-height="1016"
     inkscape:window-x="894"
     inkscape:window-y="1467"
     inkscape:window-maximized="1"
     fit-margin-top="0"
     fit-margin-left="0"
     fit-margin-right="0"
     fit-margin-bottom="0" />
  <metadata
     id="metadata5">
    <rdf:RDF>
      <cc:Work
         rdf:about="">
        <dc:format>image/svg+xml</dc:format>
        <dc:type
           rdf:resource="http://purl.org/dc/dcmitype/StillImage" />
        <dc:title></dc:title>
      </cc:Work>
    </rdf:RDF>
  </metadata>
  <g
     inkscape:label="Layer 1"
     inkscape:groupmode="layer"
     id="layer1"
     transform="translate(-42.809254,-19.656882)">
    <path
       style="fill:#000000;stroke-width:0.26458335"
       d="M 102.3337,127.60343 C 94.776446,127.04868 87.455527,124.56766 81.371755,120.49952 71.463839,113.87423 64.698877,104.01136 62.381643,92.813175 60.424784,83.356525 61.4172,74.204215 65.315232,65.758835 71.926765,51.43447 86.306518,41.89437 101.28605,41.89437 c 2.77028,0 3.97124,0.33464 2.44753,0.68199 -9.898864,2.25661 -16.173977,5.71753 -22.515074,12.417765 -5.290254,5.58989 -8.470109,11.87527 -9.826914,19.42412 -1.65849,9.22734 0.551021,19.48848 5.855671,27.194175 1.96781,2.8585 5.861289,6.83558 8.608569,8.79343 4.227716,3.01286 9.766774,5.37667 14.758078,6.29803 2.85661,0.52731 10.21229,0.57206 13.62604,0.0829 8.3324,-1.19398 16.99758,-4.76783 23.81371,-9.82168 2.77849,-2.06012 6.63044,-5.75846 9.2142,-8.846755 5.74087,-6.86187 10.11374,-16.10496 11.83637,-25.01891 0.25142,-1.301 0.54856,-2.36546 0.66031,-2.36546 0.42512,0 0.58465,4.22655 0.29461,7.8052 -0.99328,12.25558 -6.11988,23.539205 -14.70298,32.361145 -3.21991,3.30952 -5.1671,4.92484 -9.1558,7.59533 -7.35789,4.92623 -15.75523,7.90339 -25.4,9.00521 -3.55792,0.40645 -4.21819,0.41446 -8.46667,0.10259 z m -2.645834,-22.17857 c -0.65485,-0.0895 -1.071,-0.24107 -0.92479,-0.33674 0.14622,-0.0957 1.478294,-0.4732 2.960184,-0.83895 8.15801,-2.01351 15.8434,-6.709745 21.1672,-12.934455 5.96136,-6.97017 8.9664,-14.5503 9.26031,-23.35889 0.3129,-9.37762 -2.47221,-17.633785 -8.39268,-24.879235 -4.76025,-5.82557 -11.9612,-10.18602 -20.10147,-12.1722 -2.73017,-0.66614 -10.770404,-0.81377 -14.684383,-0.26962 -10.78076,1.49881 -20.811017,6.34024 -28.779103,13.89116 -7.889625,7.47657 -13.820327,18.229435 -16.09664,29.184585 -0.325048,1.56435 -0.674769,2.84427 -0.777159,2.84427 -0.622952,0 -0.689124,-5.38095 -0.122111,-9.92978 0.75021,-6.01851 2.257428,-11.00591 5.034996,-16.660845 7.088516,-14.43172 20.112052,-24.77167 36.109809,-28.669135 8.766007,-2.135627 16.367891,-2.181555 24.315671,-0.146909 12.52798,3.207187 22.58704,11.430904 28.59287,23.375904 2.12062,4.21771 3.49903,9.00367 4.11916,14.302055 0.4541,3.87993 0.47967,5.87816 0.11682,9.12975 -1.71791,15.39457 -10.96993,28.29465 -24.60076,34.300825 -5.22269,2.30129 -13.02538,3.7387 -17.197924,3.16821 z"
       id="path4529"
       inkscape:connector-curvature="0"
       sodipodi:nodetypes="csssscssscscscssscccccccsssscssssssssscssc" />
    <ellipse
       style="opacity:1;fill:#000000;fill-opacity:1;stroke:none;stroke-width:0.7339462;stroke-linecap:round;stroke-linejoin:round;stroke-miterlimit:4;stroke-dasharray:none;stroke-opacity:1"
       id="path4586"
       cx="101.56244"
       cy="74.564926"
       rx="18.441597"
       ry="17.973875" />
  </g>
</svg>
