<?xml version="1.0" encoding="UTF-8"?><svg id="Calque_1" xmlns="http://www.w3.org/2000/svg" xmlns:xlink="http://www.w3.org/1999/xlink" viewBox="0 0 115.72 74.53"><defs><style>.cls-1{fill:#30a1db;}.cls-2{fill:#9d9d9c;}.cls-3{fill:#29235c;}.cls-4{fill:url(#Dégradé_sans_nom_13);}.cls-5{fill:#1d71b8;}</style><linearGradient id="Dégradé_sans_nom_13" x1="0" y1="52.3" x2="87.82" y2="52.3" gradientUnits="userSpaceOnUse"><stop offset="0" stop-color="#30a1db"/><stop offset=".19" stop-color="#2f9dd7"/><stop offset=".36" stop-color="#2f91cb"/><stop offset=".54" stop-color="#2e7eb8"/><stop offset=".71" stop-color="#2c649d"/><stop offset=".87" stop-color="#2a427b"/><stop offset="1" stop-color="#29235c"/></linearGradient></defs><path class="cls-5" d="m63.76,28.01c-.02,3.83-.13,7.71-.28,11.59-.7.23-1.44.38-2.26.47-.22-4.09-.4-8.09-.47-11.88,1.04-.07,2.06-.14,3.02-.19Z"/><path class="cls-5" d="m63.76,24.62c-.99.14-2.01.29-3.05.44,0-3.96.15-7.62.54-10.82.76.32,1.49.65,2.22.95.19,3.11.27,6.25.28,9.42Z"/><path class="cls-5" d="m62.8,58.83c-.76.26-1.54.52-2.34.78-.39-3.18-.63-6.32-.06-9.33.87-.22,1.61-.16,2.45-.03.43,2.08.23,5.27-.05,8.59Z"/><path class="cls-5" d="m56.19,45.95c-6.27,1.11-13.81,1.67-21.94,2.01v-2.42c8.17-.89,15.73-1.59,21.85-1.94.44.92.35,1.69.09,2.35Z"/><path class="cls-5" d="m54.45,11.4c-4.11,4.57-9.88,10.24-16.25,16.33-.67-.16-1.52-.49-2.09-1.2,5.69-6.01,11.13-11.52,16.07-16.05.75.29,1.5.61,2.26.93Z"/><path class="cls-5" d="m48.52,8.97c-6.54,2.82-10.68,4.57-12.98,5.69.01-1.35.02-2.62.02-3.68,3.29-1.39,6.46-2.57,9.42-3.39,1.11.42,2.29.89,3.53,1.38Z"/><path class="cls-5" d="m32.18,25.69c-4.81-.44-10.07-1.14-15.6-1.99-.5-.08-1.02-.16-1.53-.24.04-.35.11-.71.23-1.05.14-.4.34-.8.64-1.14,5.82.59,11.28,1.27,16.16,2.14.04.8.1,1.55.1,2.28Z"/><path class="cls-5" d="m26.77,35.32c-.56.61-1.14,1.11-1.79,1.44-.05.03-.1.05-.15.07-3.08-2.8-6.36-6.56-9.75-10.84-.06-.34-.1-.62-.1-.83-.01-.49-.02-1.09.06-1.71.04-.35.11-.71.23-1.05.44.43.88.87,1.3,1.29,4,4.01,7.52,7.9,10.19,11.61Z"/><path class="cls-5" d="m79.4,45.11c-.74-.24-2.25-1.45-3.66-2.69-1.55-1.72-2.97-3.31-4.11-4.67-.11-.93.29-1.87,1-2.51,2.12,1.76,4.34,4.3,6.6,7.19.54,1.65.71,2.86.17,2.68Z"/><path class="cls-1" d="m82.7,28.9c2.05-1.79,5.41-5.6-.46-8.91-5.86-3.3-10.88-1.42-14.08-11.56-3.19-10.15-6.27-8.78-10.77-6.73-4.51,2.06-4.56,3.84-10.09,3.77-5.53-.07-7.69-7.32-14.2-5.03-4.05,1.42-4.67,9.91-7.97,12.03-3.31,2.11-13.45,5.13-13.91,9.8-.45,4.68,4.73,11.29,3.14,16.65-1.05,3.52-12.54,15.52-13,19.65-.45,4.18,3.03-13.05,23.57.13,2.47,1.58,2.91,8.03,4.26,11.56,1.35,3.54,4.21,3.71,7.11,2.74s6.38-5.7,11.17-4.34c4.78,1.37,8.78,6.45,13.05,5.81,4.28-.63,5.65-7.35,6.96-10.77,1.3-3.42,1.71-5.42,12.25-7.98,10.54-2.56,2.09-11,.87-13.62-1.21-2.62.04-11.42,2.1-13.21ZM15.46,44.92c-.86-.64-.73-2.35,0-3.16.73-.82,2.97-3.15,3.98-1.84,1.02,1.32-.26,2.56-.77,3.16-.51.6-2.35,2.48-3.21,1.84Zm4.7,9.44c-3.21-1.23-1.97-2.3.34-3.08,2.3-.77,7.35-1.92,9.66-.94,2.31.99,1.63,6.39,0,6.76-1.71.38-6.79-1.5-10-2.74Zm.56-10.29l7.01-6.63c.92-.88,2.35-1.16,3.33,0,.99,1.15.04,5.85-.98,7.61-1.03,1.76-3.98,1.84-7.95,1.84s-1.41-2.82-1.41-2.82Zm10.94,19.79c-.52,1.45-.94.98-1.96-.38-1.03-1.37-.34-2.82.89-2.71,1.29.11,1.58,1.64,1.07,3.1Zm-1-33.64c-1.38,1.6-2.54,3.64-3.88,5.11-.56.61-1.14,1.11-1.79,1.44-.05.03-.1.05-.15.07-2.18,1.1-4.57,1.62-5.95-.38-1.25-1.82-3.31-7.84-3.79-10.45-.06-.34-.1-.62-.1-.83-.01-.49-.02-1.09.06-1.71.04-.35.11-.71.23-1.05.14-.4.34-.8.64-1.14.63-.76,1.69-1.28,3.43-1.28h9.32s3.24.06,3.38,2.87c.01.19.02.37.03.55.04.8.1,1.55.1,2.28,0,1.59-.28,3.07-1.52,4.52Zm-.63-15.06c-1.39-.39-1.5-1.85-1.25-3.13.26-1.31,1.77-3.97,2.48-3.97s1.28,2.25,1.36,3.84c.09,1.72-1.19,3.65-2.59,3.25Zm34.5-7.09c1.2-.37,2.39,2.8,2.56,4.76.17,1.97-1.9,2.27-2.56,0-.8-2.74-1.19-4.39,0-4.76Zm-6.79.44c1.88-1.39,4.06-3.63,3.88.55s.17,3.82-2.56,2.57c-2.73-1.25-3.67-1.4-1.32-3.13Zm-2.83-2.95c2.77-.43.98,1.15.21,1.88-.77.73-1.15,2.35-3.63,1.07-1.43-.75.65-2.52,3.42-2.95Zm-17.44-.26c.61-.18,3.54.79,7.51,2.3,1.11.42,2.29.89,3.53,1.38,1.19.47,2.42.97,3.67,1.49.75.29,1.5.61,2.26.93,2.29.95,4.61,1.93,6.81,2.86.76.32,1.49.65,2.22.95,5.85,2.51,10.37,4.51,10.37,4.51,0,0,3.04,2,.25,3.03-1.2.44-5.33,1.14-10.34,1.89-.99.14-2.01.29-3.05.44-9.89,1.39-21.49,2.8-21.49,2.8,0,0-.44,0-1.02-.14-.67-.16-1.52-.49-2.09-1.2-.37-.45-.62-1.08-.62-1.91.01-1.69.03-6.11.04-9.95.01-1.35.02-2.62.02-3.68.01-1.66.02-2.78.02-2.78,0,0-.33-2.22,1.9-2.91Zm30.86,30.43c-1.55,2.15-3.03,3.29-4.85,3.88-.7.23-1.44.38-2.26.47-.58.08-1.18.12-1.84.15-4.05.17-11.85-5.01-15.27-6.33-3.42-1.3-2.45-3.82,0-4.05,0,0,9.01-1.1,16.63-1.65,1.04-.07,2.06-.14,3.02-.19,3.68-.18,6.59-.16,7.25.3,2.11,1.48-.12,3.87-2.68,7.41Zm-29.29,32.41c-.89-1.37,5.13-5.26,6.01-3.87.71,1.11-5.14,5.24-6.01,3.87Zm2.69-6.8c-.6.6-1.17,1.16-1.7,1.7-1.37,1.35-2.46,2.45-3.07,3.08-3,3.11-2.72.23-2.72.23v-30.21c0-1.54,1.2-2.45,3.48-2.17,2.28.29,13.45,4.96,16.59,7.59.92.76,1.46,1.44,1.78,2.06.44.92.35,1.69.09,2.35-.15.42-.36.81-.55,1.17-.49.95-8.4,8.75-13.89,14.21Zm15.45,8.08c-2.31.98-4.7-1.16-5.9-2.87-1.2-1.72,3.14-2.73,6.88-3.34,2.67-.42,1.32,5.22-.98,6.21Zm6.25-3.23c-2.16-.19-.35-5.24,1.4-6.03,1.92-.89.77,6.23-1.4,6.03Zm6.73-10.28c-.84.52-3.84,1.73-7.36,2.93-.76.26-1.54.52-2.34.78-5.42,1.75-11.19,3.17-11.91,2.11-1.31-1.94,1.25-4.11,6.83-8.49,2.33-1.84,3.79-2.65,5.01-2.96.87-.22,1.61-.16,2.45-.03.79.14,1.65.35,2.81.48,4.82.59,6.78,3.75,4.5,5.18Zm7.36-6.3c-.92,1.28-6.95.88-12.31-1s-3.76-1.88,0-6.32c3.75-4.44,4.72-1.66,5.9-.51,0,0,7.32,6.55,6.41,7.83Zm1.89-4.5c-.74-.24-2.25-1.45-3.66-2.69-1.67-1.46-3.22-2.97-3.22-2.97-.54-.51-.82-1.11-.89-1.71-.11-.93.29-1.87,1-2.51.41-.38.93-.67,1.51-.79,1.48-.31,4.02,4.71,5.09,7.98.54,1.65.71,2.86.17,2.68Zm-2.86-12.24c-1.97-1.24,2.8-7.79,3.75-7.18,1.29.81-1.8,8.42-3.75,7.18Z"/><path class="cls-5" d="m41.74,61.33c-.6.6-1.17,1.16-1.7,1.7l-5.79-2.1v-2.31l7.49,2.71Z"/><path class="cls-5" d="m114.11,18.43c-.61-.05-1.22-.06-1.85-.03-3.8.18-7.77,1.81-12,5.65.04.25.08.51.16.77.16.66.42,1.3.77,1.92.6,1.05,1.43,1.91,2.38,2.55,2.41-.73,4.51-1.69,6.27-2.91,1.77-1.22,3.19-2.67,4.28-4.38.36-.55.67-1.13.95-1.73.18-.4.35-.81.5-1.24.06-.13.09-.25.14-.38-.54-.1-1.07-.17-1.61-.2Z"/><path class="cls-3" d="m101.95,29.72c-.17.04-.34.09-.5.12-.46.12-.94.2-1.41.31-.84-1.06-1.59-2.12-1.95-3.09.38-.43.78-.84,1.17-1.23.07.25.16.49.27.73.11.3.25.59.42.88.53.92,1.21,1.68,2,2.28Z"/><path class="cls-5" d="m99.25,25.83c-.39.39-.78.8-1.17,1.23-.09-.21-.16-.44-.2-.64.4-.44.79-.86,1.2-1.24.05.22.1.44.17.66Z"/><path class="cls-5" d="m104.25,19.39c-.21.12-.41.24-.62.36-1.41.85-2.62,1.76-3.58,2.76-.87-.76-1.9-1.18-3.12-1.26-.23-.03-.46-.03-.71-.03,2.67-2.43,5.34-2.77,8.03-1.84Z"/><path class="cls-5" d="m109.37,28.32l-.02.13c-.06.25-.11.5-.19.73-1.56.88-3.07,1.56-4.51,1.95,0-.19-.02-.37-.06-.55,0-.07-.01-.14-.02-.21,1.54-.37,3.14-1.08,4.81-2.05Z"/><path class="cls-3" d="m109.16,29.18c-.68,2.31-2.26,4.09-5.21,5.07-.07.03-.13.05-.21.07.17-.28.32-.54.43-.81h0c.36-.79.51-1.58.48-2.37,1.44-.4,2.94-1.07,4.51-1.95Z"/><path class="cls-3" d="m115.58,19.01c-.15.43-.32.84-.5,1.24-.28.6-.59,1.18-.95,1.73-1.09,1.71-2.51,3.16-4.28,4.38-1.76,1.22-3.86,2.18-6.27,2.91-.95-.64-1.77-1.5-2.38-2.55-.35-.62-.62-1.26-.77-1.92,4.51-3.99,8.74-5.69,12.78-5.87.69-.04,1.36-.03,2.03.03.11,0,.22.01.34.04Z"/><path class="cls-3" d="m103.63,19.75c-1.41.85-2.62,1.76-3.58,2.76-.87-.76-1.9-1.18-3.12-1.26,2.22-1.66,4.46-2.02,6.7-1.5Z"/><path class="cls-5" d="m107.17,21.7c.81-.46,1.83-.18,2.3.62.03.04.06.08.06.13h0c.37.79.08,1.73-.68,2.16-.81.46-1.83.18-2.3-.62-.07-.11-.12-.24-.15-.36-.23-.73.08-1.54.76-1.94Z"/><path class="cls-1" d="m108.85,24.62c-.81.46-1.83.18-2.3-.62-.07-.11-.12-.24-.15-.36.04-.59.36-1.15.91-1.47.73-.41,1.63-.28,2.21.28h0c.37.79.08,1.73-.68,2.16Z"/><path class="cls-2" d="m92.1,31.13c.32-.28,1.31-1.01,2.37-1.4s2.02-.82,2.14-.62-1.32,1.16-1.22,1.29,1.29-.6,1.33-.49-.18.2-.15.26.59-.1.65.05-1.54.94-1.53,1.01.37-.08.4,0-.95.61-.91.66.34-.03.35.05-2.12,1.01-2.44,1.22-1.59,1.19-1.64,1.12.12-.31.07-.35-2.57,1.47-2.77,1.07.77-.73.77-.89-.72.02-.8-.21,1.75-1.31,1.69-1.46-.61.18-.7.04,2.39-1.34,2.39-1.34Z"/><path class="cls-2" d="m93.59,29.65s-1.64-3.47-2.04-3.77c-.18-.34-.49-.65-.62-.71-.2-.4-.62-1.3-.82-1.32s.13.72.08.75-.33-.5-.41-.37c-.05.07.04,2.5,1.13,5.18s3.07,5.94,3.17,5.9-.22-.55-.15-.59,2.47,3.32,2.86,3.19c.35.27.52.54.39.09s-1.63-4.78-1.92-5.12c.16.86,1.32,3.77,1.12,3.88s-2.8-3.4-4.03-5.67-2.01-5.32-1.66-5.44,2.89,3.99,2.89,3.99Z"/><path class="cls-4" d="m2.3,56.14c-4.37,7.97-2.53,13.05,5.73,13.85,14.66,1.42,69.02-24.32,79.8-35.42-19.59,4.63-70.38,40.05-83.77,33.08-5.99-3.12-2.15-9.04-2.15-9.04l.4-2.47Z"/></svg>