<?xml version="1.0" encoding="UTF-8"?><svg id="Calque_1" xmlns="http://www.w3.org/2000/svg" xmlns:xlink="http://www.w3.org/1999/xlink" viewBox="0 0 797.62 204.09"><defs><style>.cls-1{fill:#003a5a;}.cls-2{fill:#30a1db;}.cls-3{fill:#9d9d9c;}.cls-4{fill:#29235c;}.cls-5{fill:url(#Dégradé_sans_nom_13);}.cls-6{fill:#1d71b8;}.cls-7{fill:#616263;}</style><linearGradient id="Dégradé_sans_nom_13" x1="0" y1="143.21" x2="240.47" y2="143.21" gradientUnits="userSpaceOnUse"><stop offset="0" stop-color="#30a1db"/><stop offset=".19" stop-color="#2f9dd7"/><stop offset=".36" stop-color="#2f91cb"/><stop offset=".54" stop-color="#2e7eb8"/><stop offset=".71" stop-color="#2c649d"/><stop offset=".87" stop-color="#2a427b"/><stop offset="1" stop-color="#29235c"/></linearGradient></defs><path class="cls-1" d="m353.44,155.96l2.34,4.72h-23.17l-2.34-4.72h23.17Zm.41,9.4l-1.56,4.72h-14.96c-.68,0-1.18.16-1.51.49-.33.33-.55.73-.68,1.21-.13.47-.18.98-.17,1.53.01.54.02,1.04.02,1.49v4.72h-4.72v-7.07c0-.97.19-1.89.56-2.75.37-.86.88-1.61,1.51-2.24.63-.63,1.38-1.14,2.24-1.51.86-.37,1.78-.56,2.75-.56h16.52Z"/><path class="cls-1" d="m378.34,174.79l-2.37,4.72h-16.45v-23.51h4.72v18.79h14.11Z"/><path class="cls-1" d="m403.92,155.96l2.34,4.72h-23.71l-2.34-4.72h23.71Zm-16.66,14.15c-.66,0-1.21.23-1.66.68-.45.45-.68,1-.68,1.65v2.36h19l2.34,4.72h-26.05v-7.06c0-.97.19-1.89.56-2.75.37-.86.88-1.61,1.51-2.24.63-.63,1.38-1.14,2.24-1.51s1.78-.56,2.75-.56h16.66l2.34,4.72h-19Z"/><path class="cls-1" d="m433.09,155.96l2.34,4.72h-23.71l-2.34-4.72h23.71Zm-16.66,14.15c-.66,0-1.21.23-1.66.68-.45.45-.68,1-.68,1.65v2.36h19l2.34,4.72h-26.05v-7.06c0-.97.19-1.89.56-2.75.37-.86.88-1.61,1.51-2.24.63-.63,1.38-1.14,2.24-1.51s1.78-.56,2.75-.56h16.66l2.34,4.72h-19Z"/><path class="cls-1" d="m436.86,155.96h18.9l2.34,4.72h-7.94v18.83h-4.72v-18.83h-6.21l-2.37-4.72Z"/><path class="cls-1" d="m500.5,179.5h-17.64c-.97,0-1.89-.19-2.75-.56-.86-.37-1.61-.88-2.24-1.51-.63-.63-1.14-1.38-1.51-2.24-.37-.86-.56-1.78-.56-2.75v-9.4c0-.97.19-1.89.56-2.75.37-.86.88-1.61,1.51-2.26.63-.64,1.38-1.15,2.24-1.53.86-.37,1.78-.56,2.75-.56h15.3l2.34,4.72h-17.64c-.66,0-1.21.23-1.66.69-.45.46-.68,1.02-.68,1.67v9.38c0,.65.23,1.21.68,1.67.45.46,1.01.69,1.66.69h15.3l2.34,4.72Z"/><path class="cls-1" d="m524.11,155.96c.97,0,1.89.19,2.75.56.86.37,1.61.88,2.24,1.51.63.63,1.14,1.38,1.51,2.24.37.86.56,1.78.56,2.75v9.43c0,.97-.19,1.89-.56,2.75-.37.86-.88,1.61-1.51,2.24-.63.63-1.38,1.14-2.24,1.51-.86.37-1.78.56-2.75.56h-12.72c-.97,0-1.89-.19-2.75-.56-.86-.37-1.61-.88-2.24-1.51-.63-.63-1.14-1.38-1.51-2.24-.37-.86-.56-1.78-.56-2.75v-9.43c0-.97.19-1.89.56-2.75.37-.86.88-1.61,1.51-2.24.63-.63,1.38-1.14,2.24-1.51.86-.37,1.78-.56,2.75-.56h12.72Zm2.34,7.06c0-.66-.23-1.21-.68-1.66-.45-.45-1.01-.68-1.66-.68h-12.72c-.66,0-1.21.23-1.66.68-.45.45-.68,1.01-.68,1.66v9.43c0,.66.23,1.21.68,1.66.45.45,1.01.68,1.66.68h12.72c.66,0,1.21-.23,1.66-.68.45-.45.68-1,.68-1.66v-9.43Z"/><path class="cls-1" d="m562.27,163.49l-11.09,13.77-11.09-13.77v16.01h-4.72v-23.54h4.72l11.09,13.81,11.09-13.81h4.72v23.54h-4.72v-16.01Z"/><path class="cls-1" d="m599.05,163.49l-11.09,13.77-11.09-13.77v16.01h-4.72v-23.54h4.72l11.09,13.81,11.09-13.81h4.72v23.54h-4.72v-16.01Z"/><path class="cls-1" d="m628.8,155.96c.97,0,1.89.19,2.75.56.86.37,1.61.88,2.24,1.51s1.14,1.38,1.51,2.24c.37.86.56,1.78.56,2.75v16.49h-4.72v-7.09h-13.77l-2.34-4.72h16.11v-4.69c0-.65-.23-1.2-.68-1.65-.45-.45-1.01-.68-1.66-.68h-12.82c-.66,0-1.21.23-1.66.68-.45.45-.68,1.01-.68,1.66v16.49h-4.72v-16.49c0-.97.19-1.89.56-2.75.37-.86.88-1.61,1.51-2.24.63-.63,1.38-1.14,2.24-1.51.86-.37,1.78-.56,2.75-.56h12.82Z"/><path class="cls-1" d="m654.72,155.99h11.77v23.51h-4.72l-16.45-16.79v16.79h-4.72v-23.51h4.72l16.45,16.72v-12.01h-4.72l-2.34-4.72Z"/><path class="cls-1" d="m698.58,172.45c0,.97-.19,1.89-.56,2.75-.37.86-.88,1.61-1.51,2.24-.63.63-1.38,1.14-2.24,1.51-.86.37-1.78.56-2.75.56h-19.85v-17.03h4.72v12.31h15.13c.66,0,1.21-.23,1.66-.69.45-.46.68-1.02.68-1.67v-9.38c0-.68-.16-1.18-.47-1.52-.32-.34-.71-.57-1.19-.69-.47-.12-.98-.18-1.53-.17s-1.05.02-1.53.02h-15.1l-2.38-4.72h19.85c.97,0,1.89.19,2.75.56.86.37,1.61.88,2.24,1.53.63.64,1.14,1.4,1.51,2.26.37.86.56,1.78.56,2.75v9.4Z"/><path class="cls-1" d="m726.13,155.96l2.34,4.72h-23.71l-2.34-4.72h23.71Zm-16.66,14.15c-.66,0-1.21.23-1.66.68-.45.45-.68,1-.68,1.65v2.36h19l2.34,4.72h-26.05v-7.06c0-.97.19-1.89.56-2.75.37-.86.88-1.61,1.51-2.24.63-.63,1.38-1.14,2.24-1.51s1.78-.56,2.75-.56h16.66l2.34,4.72h-19Z"/><path class="cls-1" d="m757,163.02c0,.97-.19,1.89-.56,2.75s-.88,1.61-1.51,2.26c-.63.64-1.38,1.15-2.24,1.53-.86.37-1.78.56-2.75.56l7.06,9.4h-5.9l-7.06-9.4h-5.39c-.66,0-1.21.23-1.66.68s-.68,1.01-.68,1.66v7.06h-4.72v-7.06c0-.97.19-1.89.56-2.75.37-.86.88-1.61,1.51-2.24.63-.63,1.38-1.14,2.24-1.51.86-.37,1.78-.56,2.75-.56h11.3c.66,0,1.21-.23,1.66-.69.45-.46.68-1.02.68-1.68s-.23-1.21-.68-1.66c-.45-.45-1-.68-1.66-.68h-16.01l-2.34-4.72h18.35c.97,0,1.89.19,2.75.56.86.37,1.61.88,2.24,1.51.63.63,1.14,1.38,1.51,2.24.37.86.56,1.78.56,2.75Z"/><path class="cls-6" d="m174.59,76.71c-.06,10.5-.36,21.11-.77,31.75-1.91.64-3.95,1.05-6.19,1.3-.61-11.19-1.11-22.16-1.3-32.52,2.85-.19,5.64-.39,8.26-.52Z"/><path class="cls-6" d="m174.59,67.42c-2.71.39-5.5.8-8.34,1.22,0-10.83.41-20.86,1.49-29.62,2.07.88,4.09,1.77,6.08,2.6.52,8.51.75,17.1.77,25.81Z"/><path class="cls-6" d="m171.97,161.08c-2.07.72-4.23,1.44-6.41,2.13-1.08-8.7-1.71-17.3-.17-25.56,2.38-.61,4.42-.44,6.71-.08,1.19,5.69.64,14.42-.14,23.51Z"/><path class="cls-6" d="m153.84,125.83c-17.16,3.04-37.82,4.59-60.06,5.5v-6.63c22.38-2.43,43.07-4.37,59.82-5.3,1.22,2.51.97,4.61.25,6.44Z"/><path class="cls-6" d="m149.09,31.2c-11.24,12.52-27.05,28.04-44.48,44.7-1.82-.44-4.17-1.35-5.72-3.29,15.58-16.47,30.47-31.55,44.01-43.96,2.04.8,4.12,1.66,6.19,2.54Z"/><path class="cls-6" d="m132.85,24.57c-17.9,7.71-29.23,12.52-35.53,15.58.03-3.7.06-7.18.06-10.08,9.01-3.81,17.68-7.05,25.81-9.28,3.04,1.16,6.27,2.43,9.67,3.79Z"/><path class="cls-6" d="m88.12,70.35c-13.18-1.22-27.57-3.12-42.71-5.44-1.38-.22-2.79-.44-4.2-.66.11-.97.3-1.93.64-2.87.39-1.11.94-2.18,1.74-3.12,15.94,1.6,30.89,3.48,44.26,5.86.11,2.18.28,4.25.28,6.24Z"/><path class="cls-6" d="m73.31,96.71c-1.52,1.66-3.12,3.04-4.89,3.95-.14.08-.28.14-.41.19-8.43-7.65-17.41-17.96-26.69-29.67-.17-.94-.28-1.69-.28-2.27-.03-1.35-.06-2.98.17-4.67.11-.97.3-1.93.64-2.87,1.22,1.19,2.4,2.38,3.56,3.54,10.94,10.97,20.58,21.63,27.9,31.8Z"/><path class="cls-6" d="m217.42,123.51c-2.02-.66-6.16-3.98-10.03-7.38-4.25-4.7-8.12-9.06-11.24-12.79-.3-2.54.8-5.11,2.74-6.88,5.8,4.81,11.88,11.77,18.07,19.7,1.49,4.53,1.93,7.82.47,7.35Z"/><path class="cls-2" d="m226.45,79.14c5.61-4.89,14.81-15.33-1.27-24.4-16.05-9.03-29.78-3.9-38.54-31.66-8.73-27.79-17.16-24.04-29.48-18.43-12.35,5.64-12.49,10.53-27.63,10.33-15.14-.19-21.05-20.03-38.87-13.76-11.08,3.9-12.79,27.13-21.83,32.93-9.06,5.77-36.83,14.04-38.1,26.83-1.24,12.82,12.96,30.92,8.59,45.59-2.87,9.64-34.34,42.49-35.59,53.79-1.24,11.44,8.29-35.72,64.54.36,6.77,4.34,7.96,21.99,11.66,31.66,3.7,9.7,11.52,10.17,19.48,7.52,7.96-2.65,17.46-15.61,30.58-11.88,13.1,3.76,24.04,17.65,35.72,15.91,11.71-1.71,15.47-20.11,19.06-29.48,3.56-9.37,4.67-14.84,33.54-21.85,28.87-7.02,5.72-30.12,2.38-37.3-3.32-7.18.11-31.28,5.75-36.17ZM42.34,122.98c-2.35-1.74-1.99-6.44,0-8.65,1.99-2.24,8.12-8.62,10.89-5.03,2.79,3.62-.72,7.02-2.1,8.65-1.41,1.63-6.44,6.8-8.79,5.03Zm12.87,25.86c-8.79-3.37-5.39-6.3.94-8.43,6.3-2.1,20.11-5.25,26.44-2.57,6.33,2.71,4.48,17.49,0,18.51-4.67,1.05-18.59-4.12-27.38-7.51Zm1.52-28.18l19.2-18.15c2.51-2.4,6.44-3.18,9.12,0,2.71,3.15.11,16.02-2.68,20.83-2.82,4.81-10.89,5.03-21.77,5.03s-3.87-7.71-3.87-7.71Zm29.95,54.18c-1.44,3.98-2.57,2.68-5.36-1.05-2.82-3.76-.94-7.71,2.43-7.43,3.54.3,4.34,4.5,2.93,8.48Zm-2.74-92.11c-3.79,4.39-6.96,9.97-10.64,13.98-1.52,1.66-3.12,3.04-4.89,3.95-.14.08-.28.14-.41.19-5.97,3.01-12.52,4.45-16.3-1.05-3.43-4.97-9.06-21.47-10.39-28.62-.17-.94-.28-1.69-.28-2.27-.03-1.35-.06-2.98.17-4.67.11-.97.3-1.93.64-2.87.39-1.11.94-2.18,1.74-3.12,1.71-2.07,4.61-3.51,9.39-3.51h25.53s8.87.17,9.26,7.85c.03.52.06,1.02.08,1.52.11,2.18.28,4.25.28,6.24,0,4.37-.77,8.4-4.17,12.38Zm-1.71-41.25c-3.81-1.08-4.12-5.06-3.43-8.56.72-3.59,4.84-10.86,6.8-10.86s3.51,6.16,3.73,10.53c.25,4.7-3.26,10-7.1,8.9Zm94.46-19.42c3.29-1.02,6.55,7.65,7.02,13.04.47,5.39-5.19,6.22-7.02,0-2.18-7.51-3.26-12.02,0-13.04Zm-18.59,1.22c5.14-3.81,11.11-9.95,10.64,1.52-.47,11.47.47,10.47-7.02,7.05-7.49-3.43-10.06-3.84-3.62-8.56Zm-7.74-8.07c7.6-1.19,2.68,3.15.58,5.14-2.1,1.99-3.15,6.44-9.95,2.93-3.92-2.04,1.77-6.91,9.37-8.07Zm-47.74-.72c1.66-.5,9.7,2.15,20.56,6.3,3.04,1.16,6.27,2.43,9.67,3.79,3.26,1.3,6.63,2.65,10.06,4.09,2.04.8,4.12,1.66,6.19,2.54,6.27,2.6,12.63,5.28,18.65,7.82,2.07.88,4.09,1.77,6.08,2.6,16.02,6.88,28.4,12.35,28.4,12.35,0,0,8.32,5.47.69,8.29-3.29,1.22-14.59,3.12-28.32,5.17-2.71.39-5.5.8-8.34,1.22-27.08,3.81-58.85,7.65-58.85,7.65,0,0-1.22,0-2.79-.39-1.82-.44-4.17-1.35-5.72-3.29-1.02-1.24-1.69-2.96-1.69-5.22.03-4.61.08-16.74.11-27.24.03-3.7.06-7.18.06-10.08.03-4.56.06-7.63.06-7.63,0,0-.91-6.08,5.19-7.96Zm84.49,83.33c-4.25,5.88-8.29,9.01-13.29,10.64-1.91.64-3.95,1.05-6.19,1.3-1.57.22-3.23.33-5.03.41-11.08.47-32.44-13.73-41.8-17.32-9.37-3.56-6.71-10.47,0-11.08,0,0,24.67-3.01,45.53-4.53,2.85-.19,5.64-.39,8.26-.52,10.08-.5,18.04-.44,19.86.83,5.77,4.06-.33,10.61-7.35,20.28Zm-80.21,88.74c-2.43-3.76,14.04-14.39,16.47-10.61,1.93,3.04-14.06,14.34-16.47,10.61Zm7.38-18.62c-1.63,1.63-3.2,3.18-4.64,4.64-3.76,3.7-6.74,6.71-8.4,8.43-8.21,8.51-7.46.64-7.46.64v-82.72c0-4.23,3.29-6.71,9.53-5.94,6.24.8,36.83,13.59,45.42,20.78,2.51,2.07,4.01,3.95,4.86,5.64,1.22,2.51.97,4.61.25,6.44-.41,1.16-.99,2.21-1.52,3.2-1.35,2.6-22.99,23.95-38.04,38.9Zm42.3,22.13c-6.33,2.68-12.87-3.18-16.16-7.85-3.29-4.7,8.59-7.49,18.84-9.15,7.32-1.16,3.62,14.28-2.68,16.99Zm17.1-8.84c-5.91-.52-.97-14.34,3.84-16.52,5.25-2.43,2.1,17.05-3.84,16.52Zm18.43-28.15c-2.29,1.44-10.53,4.72-20.14,8.01-2.07.72-4.23,1.44-6.41,2.13-14.84,4.78-30.64,8.68-32.6,5.77-3.59-5.3,3.43-11.24,18.7-23.24,6.38-5.03,10.39-7.27,13.73-8.1,2.38-.61,4.42-.44,6.71-.08,2.16.39,4.53.97,7.68,1.33,13.21,1.6,18.57,10.28,12.32,14.17Zm20.14-17.24c-2.51,3.51-19.04,2.4-33.71-2.74-14.67-5.14-10.31-5.14,0-17.3,10.28-12.16,12.93-4.56,16.16-1.41,0,0,20.03,17.93,17.54,21.44Zm5.17-12.32c-2.02-.66-6.16-3.98-10.03-7.38-4.59-4.01-8.81-8.12-8.81-8.12-1.49-1.41-2.24-3.04-2.43-4.67-.3-2.54.8-5.11,2.74-6.88,1.13-1.05,2.54-1.82,4.14-2.16,4.06-.86,11,12.9,13.92,21.85,1.49,4.53,1.93,7.82.47,7.35Zm-7.82-33.51c-5.39-3.4,7.65-21.33,10.28-19.67,3.54,2.21-4.92,23.04-10.28,19.67Z"/><path class="cls-6" d="m114.28,167.94c-1.63,1.63-3.2,3.18-4.64,4.64l-15.86-5.75v-6.33l20.5,7.43Z"/><g id="g1076"><path id="path1078" class="cls-7" d="m376.81,44.03h31.74l19.51,32.8,19.51-32.8h31.74v93.33h-30.31v-46.26l-20.94,33.2h-.52l-20.94-33.2v46.26h-29.79V44.03Z"/></g><path id="path1080" class="cls-7" d="m494.38,44.03h30.44v93.33h-30.44V44.03Z"/><g id="g1090"><path id="path1092" class="cls-7" d="m532.65,121.63l16.26-19.87c9.89,7.73,21.2,10.93,31.87,10.93,5.46,0,7.8-1.46,7.8-4v-.27c0-2.66-2.86-4.13-12.62-6.13-20.42-4.27-38.37-10.27-38.37-30v-.27c0-17.73,13.53-31.47,38.63-31.47,17.56,0,30.57,4.27,41.11,12.8l-14.83,21.06c-8.59-6.4-18.86-9.2-27.32-9.2-4.55,0-6.63,1.6-6.63,3.87v.27c0,2.53,2.47,4.13,12.09,6,23.29,4.4,38.89,11.33,38.89,30.13v.27c0,19.6-15.74,31.6-40.19,31.6-18.47,0-35.12-5.33-46.7-15.73"/></g><g id="g1094"><path id="path1096" class="cls-7" d="m628.77,42.3h40.97c24.2,0,40.72,11.07,40.72,33.2v.27c0,22.53-16.78,34.53-41.37,34.53h-9.89v25.33h-30.44V42.3Zm38.63,45.73c7.8,0,13.01-3.6,13.01-10.27v-.27c0-6.8-4.81-10.27-12.88-10.27h-8.33v20.8h8.2Z"/></g><polygon class="cls-2" points="321.02 156.26 290.16 156.23 292.2 163.33 321.02 163.33 321.02 156.26"/><polygon class="cls-2" points="292.65 164.88 294.46 171.16 321.02 171.16 321.02 164.88 292.65 164.88"/><polygon class="cls-2" points="296.78 179.24 321.02 179.24 321.02 172.72 294.9 172.72 296.78 179.24"/><polygon class="cls-2" points="766.76 156.26 797.62 156.23 795.58 163.33 766.76 163.33 766.76 156.26"/><polygon class="cls-2" points="795.13 164.88 793.33 171.16 766.76 171.16 766.76 164.88 795.13 164.88"/><polygon class="cls-2" points="791 179.24 766.76 179.24 766.76 172.72 792.88 172.72 791 179.24"/><path class="cls-6" d="m312.46,50.45c-1.67-.13-3.35-.16-5.06-.09-10.4.49-21.27,4.95-32.87,15.47.11.7.23,1.39.44,2.11.42,1.8,1.16,3.55,2.11,5.24,1.66,2.86,3.91,5.22,6.51,6.97,6.61-2.01,12.35-4.64,17.17-7.98,4.85-3.33,8.74-7.31,11.73-11.99.98-1.52,1.83-3.09,2.6-4.75.5-1.09.97-2.23,1.38-3.41.16-.34.26-.7.39-1.05-1.48-.26-2.93-.45-4.4-.54Z"/><path class="cls-4" d="m279.15,81.36c-.46.12-.92.24-1.38.33-1.27.32-2.57.56-3.87.84-2.29-2.91-4.35-5.81-5.33-8.45,1.05-1.17,2.13-2.29,3.2-3.35.18.68.44,1.33.73,1.99.29.83.69,1.61,1.16,2.4,1.45,2.52,3.31,4.61,5.49,6.25Z"/><path class="cls-6" d="m271.77,70.72c-1.07,1.06-2.15,2.19-3.2,3.35-.23-.58-.43-1.19-.53-1.75,1.09-1.19,2.18-2.35,3.28-3.41.13.6.26,1.2.46,1.81Z"/><path class="cls-6" d="m285.45,53.1c-.57.34-1.13.65-1.7.98-3.86,2.32-7.18,4.81-9.79,7.56-2.37-2.08-5.21-3.22-8.55-3.44-.63-.08-1.27-.09-1.95-.07,7.3-6.65,14.63-7.58,21.99-5.03Z"/><path class="cls-6" d="m299.47,77.53l-.06.36c-.15.68-.31,1.37-.52,2-4.28,2.42-8.4,4.26-12.34,5.35-.01-.51-.06-1.02-.17-1.52,0-.2-.03-.38-.07-.59,4.2-1.01,8.61-2.97,13.17-5.61Z"/><path class="cls-4" d="m298.89,79.89c-1.87,6.33-6.18,11.21-14.26,13.87-.18.07-.36.14-.58.2.47-.76.87-1.47,1.17-2.23v-.03c.99-2.12,1.41-4.28,1.32-6.46,3.95-1.09,8.06-2.93,12.34-5.35Z"/><path class="cls-4" d="m316.47,52.04c-.41,1.18-.88,2.31-1.38,3.41-.77,1.66-1.62,3.23-2.6,4.75-2.99,4.68-6.88,8.65-11.73,11.99-4.82,3.34-10.56,5.97-17.17,7.98-2.6-1.75-4.85-4.11-6.51-6.97-.95-1.69-1.69-3.44-2.11-5.24,12.35-10.93,23.93-15.57,35.01-16.07,1.88-.11,3.73-.08,5.57.07.3.02.6.04.93.1Z"/><path class="cls-4" d="m283.75,54.08c-3.86,2.32-7.18,4.81-9.79,7.56-2.37-2.08-5.21-3.22-8.55-3.44,6.08-4.53,12.21-5.54,18.35-4.12Z"/><path class="cls-6" d="m293.46,59.42c2.22-1.26,5.02-.5,6.29,1.69.08.12.16.23.17.37v.03c1,2.14.21,4.7-1.86,5.89-2.22,1.26-5.02.5-6.29-1.69-.18-.3-.32-.67-.4-.98-.62-2,.21-4.22,2.09-5.31Z"/><path class="cls-2" d="m298.06,67.41c-2.22,1.26-5.02.5-6.29-1.69-.18-.3-.32-.67-.4-.98.12-1.6,1-3.14,2.51-4.02,1.99-1.13,4.46-.76,6.05.77v.03c1,2.14.21,4.7-1.86,5.89Z"/><path class="cls-3" d="m252.17,85.25c.87-.77,3.58-2.75,6.48-3.83,2.9-1.08,5.53-2.24,5.86-1.7s-3.61,3.17-3.34,3.52,3.53-1.63,3.64-1.33-.51.54-.41.72,1.61-.27,1.78.14-4.23,2.58-4.18,2.77,1.03-.21,1.09.03-2.61,1.68-2.49,1.81.92-.09.96.13-5.79,2.76-6.67,3.33-4.34,3.27-4.5,3.06.32-.85.19-.96-7.03,4.04-7.59,2.93,2.12-2,2.1-2.45-1.97.07-2.2-.58c-.23-.64,4.8-3.6,4.64-4.01s-1.66.48-1.91.1,6.55-3.68,6.55-3.68Z"/><path class="cls-3" d="m256.25,81.18s-4.49-9.5-5.58-10.33c-.48-.93-1.34-1.79-1.71-1.94-.54-1.1-1.69-3.57-2.24-3.62s.35,1.98.22,2.06-.89-1.36-1.12-1.01c-.14.2.11,6.84,3.1,14.18,2.99,7.34,8.4,16.28,8.68,16.17s-.6-1.51-.42-1.61,6.77,9.1,7.83,8.74c.95.73,1.43,1.48,1.08.24-.35-1.24-4.47-13.1-5.25-14.01.45,2.34,3.62,10.32,3.05,10.63s-7.68-9.3-11.03-15.52c-3.35-6.22-5.5-14.55-4.54-14.9.96-.34,7.91,10.92,7.91,10.92Z"/><path class="cls-5" d="m6.29,153.71c-11.95,21.83-6.94,35.73,15.68,37.92,40.15,3.89,188.99-66.6,218.5-96.99-53.64,12.68-192.72,109.67-229.38,90.58-16.41-8.54-5.9-24.76-5.9-24.76l1.1-6.75Z"/></svg>