<?xml version="1.0" encoding="UTF-8" standalone="no"?>
<!-- Created with Inkscape (http://www.inkscape.org/) -->

<svg
   width="7.6142154mm"
   height="6.0929422mm"
   viewBox="0 0 7.6142154 6.0929422"
   version="1.1"
   id="svg1"
   xmlns="http://www.w3.org/2000/svg"
   xmlns:svg="http://www.w3.org/2000/svg">
  <defs
     id="defs1" />
  <g
     id="layer1"
     transform="translate(-102.82529,-115.49836)">
    <path
       id="path1"
       style="fill:#d22f27;fill-opacity:1;stroke-width:0.264583"
       d="m 104.51558,115.63429 a 0.79454375,0.79454375 0 0 0 -0.49764,0.18448 l 0.4563,0.35295 a 0.26458333,0.26458333 0 0 1 0.0413,-0.008 h 4.23334 a 0.26458333,0.26458333 0 0 1 0.26458,0.26459 v 2.91041 a 0.26458333,0.26458333 0 0 1 -0.14004,0.23306 l 0.43046,0.3328 a 0.79454375,0.79454375 0 0 0 0.23875,-0.56586 v -2.91041 a 0.79454375,0.79454375 0 0 0 -0.79375,-0.79375 z m -0.79375,1.36477 v 2.33939 a 0.79454375,0.79454375 0 0 0 0.79375,0.79375 h 1.85209 v 0.79375 h -0.79375 v 0.52917 h 2.11666 v -0.52917 h -0.79375 v -0.79375 h 0.87902 l -0.68471,-0.52916 h -2.57556 a 0.26458333,0.26458333 0 0 1 -0.26458,-0.26459 v -1.93063 z" />
    <path
       fill="currentColor"
       d="m 107.69074,119.33859 -0.50641,-1.68804 -0.28734,1.15888 -0.34634,-0.79375 h -0.0876 l -0.35983,1.05833 -0.30612,-1.07606 -0.14129,0.28231 h -0.87551 v -0.26458 h 0.712 l 0.34634,-0.79375 0.28257,0.98239 0.15134,-0.45323 h 0.44159 l 0.12885,0.25744 0.31856,-1.58035 0.52917,2.11666 0.16933,-0.52916 h 0.62442 v 0.26458 h -0.43392 z"
       id="path2"
       style="fill:#d22f27;fill-opacity:1;stroke-width:0.264583" />
    <!--!Font Awesome Free 6.7.2 by @fontawesome - https://fontawesome.com License - https://fontawesome.com/license/free Copyright 2025 Fonticons, Inc.-->
    <path
       d="m 109.89846,121.54999 -6.99973,-5.41013 c -0.0833,-0.0643 -0.0976,-0.18443 -0.0333,-0.26771 l 0.2332,-0.29984 c 0.0643,-0.0833 0.18442,-0.0988 0.26771,-0.0333 l 6.99974,5.41014 c 0.0833,0.0643 0.0976,0.18442 0.0333,0.26771 l -0.2332,0.30102 c -0.0643,0.0833 -0.18442,0.0976 -0.26771,0.0333 z"
       id="path1-5"
       style="fill:#555555;fill-opacity:1;stroke-width:0.0118983" />
  </g>
</svg>
