<?xml version="1.0" encoding="UTF-8" standalone="no"?>
<!-- Created with Inkscape (http://www.inkscape.org/) -->

<svg
   width="5.8208332mm"
   height="5.8208256mm"
   viewBox="0 0 5.8208332 5.8208256"
   version="1.1"
   id="svg1"
   xmlns="http://www.w3.org/2000/svg"
   xmlns:svg="http://www.w3.org/2000/svg">
  <defs
     id="defs1" />
  <g
     id="layer1"
     transform="translate(-103.72199,-115.63444)">
    <path
       fill="currentColor"
       d="m 106.36782,120.13234 h 0.52917 v 0.79375 h -0.52917 z m 1.32292,0.79375 v 0.52917 h -2.11667 v -0.52917 z m 1.05833,-0.79375 h -4.23333 a 0.79454375,0.79454375 0 0 1 -0.79375,-0.79375 v -2.91041 a 0.79454375,0.79454375 0 0 1 0.79375,-0.79375 h 4.23333 a 0.79454375,0.79454375 0 0 1 0.79375,0.79375 v 2.91041 a 0.79454375,0.79454375 0 0 1 -0.79375,0.79375 m -4.23333,-3.96875 a 0.26458333,0.26458333 0 0 0 -0.26458,0.26459 v 2.91041 a 0.26458333,0.26458333 0 0 0 0.26458,0.26459 h 4.23333 a 0.26458333,0.26458333 0 0 0 0.26459,-0.26459 v -2.91041 a 0.26458333,0.26458333 0 0 0 -0.26459,-0.26459 z"
       id="path1"
       style="fill:#d22f27;fill-opacity:1;stroke-width:0.264583" />
    <path
       fill="currentColor"
       d="m 107.69074,119.33859 -0.50641,-1.68804 -0.28734,1.15888 -0.34634,-0.79375 h -0.0876 l -0.35983,1.05833 -0.30612,-1.07606 -0.14129,0.28231 h -0.87551 v -0.26458 h 0.712 l 0.34634,-0.79375 0.28257,0.98239 0.15134,-0.45323 h 0.44159 l 0.12885,0.25744 0.31856,-1.58035 0.52917,2.11666 0.16933,-0.52916 h 0.62442 v 0.26458 h -0.43392 z"
       id="path2"
       style="fill:#d22f27;fill-opacity:1;stroke-width:0.264583" />
    <!--!Font Awesome Free 6.7.2 by @fontawesome - https://fontawesome.com License - https://fontawesome.com/license/free Copyright 2025 Fonticons, Inc.-->
  </g>
</svg>
